<svg width="20" height="30" viewBox="0 0 20 30" fill="none" xmlns="http://www.w3.org/2000/svg">
<path d="M11.2468 5.82812C12.0598 6.96628 12.4968 8.33001 12.4968 9.72873V11.0781C12.9253 11.0781 13.3414 10.9349 13.6791 10.6712C14.0168 10.4075 14.2567 10.0386 14.3606 9.62292L14.4968 9.07812L14.8663 9.52153C15.4621 10.2364 15.7854 11.1391 15.7789 12.0696C15.7725 13.0002 15.4367 13.8983 14.8311 14.6049C14.6041 14.8696 14.4855 15.2103 14.4988 15.5587C14.5122 15.9072 14.6565 16.2377 14.9031 16.4843C15.0407 16.622 15.2059 16.7291 15.3877 16.7986C15.5696 16.8681 15.7641 16.8984 15.9584 16.8877C16.1528 16.8769 16.3427 16.8252 16.5158 16.7361C16.6889 16.6469 16.8412 16.5222 16.9628 16.3702L17.9968 15.0781L18.9968 17.5781C19.4503 19.0896 19.486 20.6958 19.1002 22.226C18.7144 23.7562 17.9215 25.1534 16.8056 26.2693L16.6795 26.3954C14.9619 28.1131 12.6322 29.0781 10.2031 29.0781H9.1828C7.6011 29.0781 6.0464 28.6685 4.67 27.8892C3.29359 27.1099 2.14247 25.9875 1.3287 24.6312C0.354282 23.0072 -0.092738 21.121 0.049202 19.2323C0.191142 17.3437 0.915052 15.5455 2.12127 14.0853L6.169 9.18542C6.5679 8.70253 6.8242 8.11806 6.9093 7.49757C6.9943 6.87709 6.9046 6.24519 6.6503 5.67287C6.3276 4.9469 6.2719 4.13021 6.4932 3.36717C6.7144 2.60413 7.1983 1.94387 7.8593 1.50312L9.9968 0.078125V1.92757C9.9968 3.32625 10.4339 4.68997 11.2468 5.82812Z" fill="url(#paint0_linear_1_266)"/>
<defs>
<linearGradient id="paint0_linear_1_266" x1="9.6944" y1="0.078125" x2="9.6944" y2="29.0781" gradientUnits="userSpaceOnUse">
<stop stop-color="#FF9159"/>
<stop offset="0.6875" stop-color="#FF7631"/>
<stop offset="1" stop-color="#FF6A1F"/>
</linearGradient>
</defs>
</svg>
