<svg width="12" height="18" viewBox="0 0 12 18" fill="none" xmlns="http://www.w3.org/2000/svg">
<path d="M9.689 15.6663L9.6934 15.6619C10.4711 14.8782 11.026 13.9015 11.3009 12.8322C11.5758 11.7629 11.5608 10.6397 11.2575 9.57812L9.8029 11.0327C9.6657 11.17 9.5027 11.2789 9.3233 11.3532C9.144 11.4275 8.9517 11.4658 8.7576 11.4658C8.5635 11.4658 8.3712 11.4275 8.1919 11.3532C8.0125 11.2789 7.8495 11.17 7.7123 11.0327C7.4514 10.7719 7.2974 10.4229 7.2807 10.0544C7.2639 9.68592 7.3855 9.32442 7.6217 9.04103C8.108 8.45753 8.4136 7.74483 8.5012 6.99033C8.5887 6.23583 8.4545 5.47223 8.1148 4.79283L5.7575 0.078125L5.395 4.06563C5.3515 4.54383 5.2119 5.00843 4.9845 5.43133C4.7571 5.85433 4.4466 6.22693 4.0717 6.52703L2.0109 8.17573C1.4639 8.61333 1.0223 9.16832 0.718797 9.79972C0.415397 10.4311 0.257797 11.1226 0.257797 11.8232V12.3906C0.257797 13.0754 0.408397 13.7517 0.698797 14.3719C0.989197 14.992 1.4125 15.5407 1.9385 15.979C2.7902 16.6887 3.8665 17.0724 4.975 17.0615L6.4199 17.0472C7.6488 17.0349 8.8234 16.5387 9.689 15.6663Z" fill="#FDD04A"/>
</svg>
