<svg width="37" height="37" viewBox="0 0 37 37" fill="none" xmlns="http://www.w3.org/2000/svg">
<path d="M0.252319 12.5469C0.40681 12.1525 0.404103 11.7284 0.479951 11.3205C1.38236 6.4256 5.41227 2.30858 10.3256 1.27394C11.2605 1.07679 12.2037 0.974123 13.1603 0.97682C16.5669 0.98491 19.9734 0.949849 23.3799 0.987607C26.716 1.02545 29.6076 2.23298 32.0251 4.51299C34.147 6.51469 35.418 8.97567 35.8788 11.8473C35.9818 12.4821 36.0223 13.1224 36.0223 13.7653C36.0196 17.1745 36.0468 20.5863 36.0088 23.9955C35.9708 27.3155 34.7595 30.1925 32.4695 32.6022C30.4586 34.7146 27.9843 35.9735 25.1008 36.4436C24.8271 36.4895 24.5398 36.4598 24.2769 36.5759C20.1441 36.5759 16.0113 36.5759 11.8785 36.5759C11.8595 36.4922 11.7863 36.5192 11.7348 36.5138C11.2632 36.4544 10.7944 36.3788 10.3283 36.2815C5.41768 35.2469 1.38786 31.1272 0.485362 26.2349C0.409515 25.8271 0.412221 25.4029 0.257731 25.0085C0.25232 20.8538 0.252319 16.7017 0.252319 12.5469ZM11.9246 7.94911C11.9246 8.12208 11.9246 8.23014 11.9246 8.33541C11.9246 12.4497 11.9218 16.5613 11.9327 20.6755C11.9327 20.9537 11.8568 21.0024 11.6021 20.9699C11.1061 20.9051 10.6102 20.9348 10.1224 21.0375C9.11959 21.2481 8.21447 21.6453 7.55863 22.4692C6.70222 23.5497 6.91632 25.0545 8.03013 25.8027C8.50172 26.1188 9.03562 26.2647 9.58847 26.3457C10.8351 26.5321 12.0302 26.4241 13.0736 25.6407C14.1766 24.8113 14.8324 23.7659 14.808 22.3206C14.7674 19.9893 14.7972 17.6553 14.7972 15.3213C14.7972 15.2267 14.7972 15.1322 14.7972 15.0377C14.9002 15.0538 14.9354 15.1079 14.9815 15.1565C16.1847 16.4019 17.3934 17.6472 18.5967 18.8925C18.8948 19.2005 18.8894 19.2032 19.1848 18.9088C20.4341 17.6634 21.6861 16.4207 22.9382 15.1782C23.0059 15.1106 23.0574 14.9971 23.1903 15.0025C23.1903 15.0755 23.1903 15.1349 23.1903 15.1943C23.1903 19.9893 23.193 24.7843 23.1849 29.5794C23.1849 29.8197 23.2309 29.8953 23.4856 29.89C24.2607 29.8711 25.0358 29.8765 25.8108 29.8873C26.0114 29.8899 26.0764 29.8495 26.0764 29.6334C26.071 22.5043 26.071 15.3753 26.0683 8.24902C26.0683 8.1815 26.1171 8.08963 26.0087 8.0383C23.7052 10.3318 21.4016 12.6253 19.1035 14.9242C18.9599 15.0674 18.8894 15.0863 18.7404 14.9323C17.7701 13.9274 16.7918 12.9305 15.8161 11.9337C14.537 10.6208 13.2552 9.31063 11.9246 7.94911Z" fill="#141820"/>
</svg>
